<svg width="28" height="28" viewBox="0 0 28 28" fill="none" xmlns="http://www.w3.org/2000/svg">
<path d="M6.13281 21.8809H21.1709C23.0781 21.8809 24.0713 20.8965 24.0713 19.0156V8.31934C24.0713 6.43848 23.0781 5.4541 21.1709 5.4541H6.13281C4.23438 5.4541 3.24121 6.42969 3.24121 8.31934V19.0156C3.24121 20.8965 4.23438 21.8809 6.13281 21.8809ZM6.24707 20.1318C5.43848 20.1318 4.99023 19.71 4.99023 18.8574V8.47754C4.99023 7.625 5.43848 7.20312 6.24707 7.20312H10.2549V20.1318H6.24707ZM21.0566 7.20312C21.8652 7.20312 22.3135 7.625 22.3135 8.47754V18.8574C22.3135 19.71 21.8652 20.1318 21.0566 20.1318H11.916V7.20312H21.0566ZM8.53223 10.4199C8.84863 10.4199 9.1123 10.1475 9.1123 9.84863C9.1123 9.5498 8.84863 9.28613 8.53223 9.28613H6.73047C6.41406 9.28613 6.15039 9.5498 6.15039 9.84863C6.15039 10.1475 6.41406 10.4199 6.73047 10.4199H8.53223ZM8.53223 12.7842C8.84863 12.7842 9.1123 12.5205 9.1123 12.2129C9.1123 11.9141 8.84863 11.6504 8.53223 11.6504H6.73047C6.41406 11.6504 6.15039 11.9141 6.15039 12.2129C6.15039 12.5205 6.41406 12.7842 6.73047 12.7842H8.53223ZM8.53223 15.1396C8.84863 15.1396 9.1123 14.8848 9.1123 14.5771C9.1123 14.2783 8.84863 14.0234 8.53223 14.0234H6.73047C6.41406 14.0234 6.15039 14.2783 6.15039 14.5771C6.15039 14.8848 6.41406 15.1396 6.73047 15.1396H8.53223Z" fill="black"/>
</svg>
